<?xml version="1.0" standalone="no"?>
<!DOCTYPE svg PUBLIC "-//W3C//DTD SVG 20010904//EN"
 "http://www.w3.org/TR/2001/REC-SVG-20010904/DTD/svg10.dtd">
<svg version="1.0" xmlns="http://www.w3.org/2000/svg"
 width="900.000000pt" height="900.000000pt" viewBox="0 0 900.000000 900.000000"
 preserveAspectRatio="xMidYMid meet">
<metadata>
Created by potrace 1.10, written by Peter Selinger 2001-2011
</metadata>
<g transform="translate(0.000000,900.000000) scale(0.100000,-0.100000)"
fill="#002255" stroke="none">
<path d="M4065 8725 c-38 -7 -99 -14 -135 -15 -36 0 -83 -7 -105 -15 -22 -8
-62 -15 -88 -15 -26 0 -64 -7 -84 -15 -19 -8 -52 -15 -72 -15 -20 0 -49 -7
-65 -15 -15 -8 -42 -15 -60 -15 -17 0 -44 -7 -60 -15 -15 -8 -40 -15 -55 -15
-14 0 -39 -7 -55 -15 -15 -8 -38 -15 -50 -15 -12 0 -31 -7 -42 -15 -10 -8 -33
-15 -50 -15 -17 0 -37 -7 -44 -15 -7 -8 -22 -15 -34 -15 -11 0 -34 -7 -50 -15
-15 -8 -35 -15 -43 -15 -8 0 -27 -6 -41 -13 -26 -13 -67 -32 -142 -64 -90 -38
-106 -46 -120 -54 -8 -5 -22 -12 -30 -15 -8 -3 -22 -10 -30 -15 -8 -5 -22 -12
-30 -15 -8 -3 -22 -10 -30 -15 -8 -5 -22 -12 -30 -15 -8 -3 -22 -10 -30 -15
-8 -5 -27 -14 -42 -20 -16 -6 -28 -15 -28 -20 0 -5 -9 -9 -20 -9 -10 0 -23 -6
-27 -13 -4 -6 -30 -23 -56 -37 -87 -45 -97 -51 -97 -59 0 -5 -11 -12 -25 -15
-14 -4 -25 -11 -25 -16 0 -6 -7 -10 -15 -10 -7 0 -18 -6 -22 -12 -9 -15 -37
-33 -70 -48 -13 -5 -23 -14 -23 -20 0 -5 -7 -10 -15 -10 -9 0 -18 -7 -21 -15
-4 -8 -12 -15 -20 -15 -7 0 -27 -13 -44 -30 -17 -16 -35 -30 -41 -30 -5 0 -12
-7 -15 -15 -4 -8 -12 -15 -18 -15 -7 0 -34 -20 -60 -45 -27 -25 -50 -45 -52
-45 -2 0 -12 -8 -22 -17 -37 -36 -82 -73 -88 -73 -8 0 -324 -316 -324 -324 0
-6 -37 -51 -72 -88 -10 -10 -18 -21 -18 -24 0 -3 -13 -17 -29 -32 -15 -15 -37
-40 -47 -57 -10 -16 -24 -34 -31 -38 -7 -4 -13 -12 -13 -17 0 -5 -13 -24 -30
-42 -16 -18 -30 -38 -30 -44 0 -7 -7 -14 -15 -18 -8 -3 -15 -12 -15 -21 0 -8
-4 -15 -9 -15 -10 0 -34 -38 -47 -72 -3 -10 -10 -18 -15 -18 -5 0 -14 -10 -19
-22 -13 -30 -33 -61 -43 -69 -10 -7 -21 -25 -57 -96 -14 -26 -31 -52 -37 -56
-7 -4 -13 -17 -13 -27 0 -11 -4 -20 -10 -20 -5 0 -12 -11 -16 -25 -3 -13 -12
-29 -20 -36 -8 -6 -14 -18 -14 -26 0 -8 -7 -21 -15 -29 -8 -9 -15 -24 -15 -33
0 -10 -7 -24 -15 -31 -8 -7 -15 -20 -15 -30 0 -10 -7 -23 -15 -30 -8 -7 -15
-18 -15 -25 0 -8 -6 -26 -14 -42 -8 -15 -22 -46 -32 -68 -9 -22 -23 -52 -31
-67 -7 -14 -13 -34 -13 -43 0 -9 -7 -23 -15 -31 -8 -9 -15 -29 -15 -45 0 -16
-4 -29 -10 -29 -5 0 -13 -18 -16 -40 -4 -22 -13 -45 -20 -51 -8 -6 -14 -26
-14 -43 0 -17 -7 -40 -15 -50 -8 -11 -15 -30 -15 -42 0 -12 -7 -35 -15 -50 -8
-16 -15 -45 -15 -64 0 -19 -7 -44 -15 -54 -8 -11 -15 -34 -15 -52 0 -17 -7
-45 -15 -60 -8 -16 -15 -45 -15 -64 0 -19 -7 -53 -15 -75 -8 -22 -14 -62 -15
-88 0 -27 -5 -58 -11 -70 -7 -12 -16 -69 -20 -127 -5 -58 -13 -127 -18 -155
-13 -65 -13 -725 0 -790 5 -27 13 -97 18 -155 4 -58 13 -115 20 -127 6 -12 11
-42 11 -68 0 -25 7 -62 15 -82 8 -19 15 -54 15 -77 0 -22 7 -54 15 -70 8 -15
15 -41 15 -58 0 -16 6 -41 14 -56 7 -15 17 -48 20 -74 4 -27 11 -48 17 -48 5
0 9 -15 9 -33 0 -18 7 -42 15 -53 8 -10 15 -33 15 -50 0 -17 7 -37 15 -44 8
-7 15 -22 15 -34 0 -12 6 -30 14 -41 7 -11 16 -37 20 -57 4 -21 11 -38 16 -38
6 0 10 -11 10 -24 0 -14 7 -31 15 -40 8 -8 15 -23 15 -33 0 -10 6 -27 14 -38
7 -11 16 -32 20 -48 3 -15 11 -27 16 -27 6 0 10 -11 10 -24 0 -13 7 -29 15
-36 8 -7 15 -20 15 -30 0 -10 7 -23 15 -30 8 -7 15 -20 15 -30 0 -10 7 -23 15
-30 8 -7 15 -20 15 -30 0 -10 6 -23 14 -29 8 -7 17 -23 20 -36 4 -14 11 -25
16 -25 6 0 10 -6 10 -14 0 -8 6 -21 12 -28 7 -7 23 -34 36 -61 13 -26 28 -47
33 -47 5 0 9 -9 9 -20 0 -11 6 -23 14 -26 8 -3 17 -16 20 -30 4 -13 11 -24 16
-24 6 0 10 -7 10 -15 0 -7 6 -18 12 -22 15 -9 33 -37 48 -70 5 -13 14 -23 20
-23 5 0 10 -7 10 -15 0 -9 7 -18 15 -21 8 -4 15 -11 15 -18 0 -6 14 -26 30
-44 17 -18 30 -37 30 -42 0 -5 6 -13 13 -17 7 -4 21 -21 31 -38 10 -16 32 -42
47 -57 16 -15 29 -29 29 -32 0 -3 8 -14 18 -25 9 -10 40 -45 67 -77 66 -77
276 -287 344 -344 30 -25 62 -53 73 -63 10 -9 21 -17 25 -17 5 -1 19 -14 33
-30 13 -17 28 -30 32 -30 10 0 31 -16 56 -42 9 -10 20 -18 24 -18 4 0 22 -13
40 -30 18 -16 38 -30 44 -30 7 0 14 -7 18 -15 3 -8 12 -15 20 -15 8 0 16 -3
18 -7 5 -12 66 -53 78 -53 5 0 10 -5 10 -10 0 -6 10 -15 23 -20 33 -15 61 -33
70 -47 4 -7 16 -13 26 -13 11 0 21 -7 25 -15 3 -8 15 -15 26 -15 11 0 20 -4
20 -10 0 -5 11 -12 25 -16 14 -3 25 -10 25 -14 0 -4 12 -13 28 -19 35 -15 71
-36 85 -50 6 -6 19 -11 28 -11 9 0 22 -7 29 -15 7 -8 20 -15 30 -15 10 0 23
-7 30 -15 7 -8 20 -15 30 -15 10 0 23 -7 30 -15 7 -8 23 -15 36 -15 13 0 24
-4 24 -9 0 -5 10 -13 23 -16 23 -7 72 -28 119 -52 14 -7 36 -13 47 -13 12 0
21 -4 21 -10 0 -5 18 -13 40 -16 22 -4 40 -10 40 -15 0 -4 17 -11 38 -15 20
-4 46 -13 57 -20 11 -8 31 -14 45 -14 14 0 34 -7 44 -15 11 -8 34 -15 50 -15
17 0 40 -7 50 -15 11 -8 32 -15 47 -15 14 0 43 -7 62 -15 20 -8 49 -15 66 -15
16 0 42 -7 57 -15 16 -8 47 -15 69 -15 23 0 46 -5 52 -11 6 -6 42 -14 80 -16
37 -3 76 -10 87 -15 10 -6 66 -14 125 -19 58 -4 129 -13 156 -18 65 -13 725
-13 790 0 28 5 98 14 156 18 59 5 116 14 127 20 11 6 45 11 74 11 29 1 64 7
78 15 14 8 45 14 70 15 25 0 58 7 74 15 15 8 42 15 60 15 17 1 42 7 56 15 14
8 39 14 56 15 16 0 39 7 50 15 10 8 33 15 50 15 16 0 39 7 50 15 10 8 34 15
52 15 20 0 35 6 38 15 4 8 18 15 33 15 14 0 38 6 53 14 15 8 40 17 57 21 17 4
31 11 31 16 0 5 9 9 21 9 11 0 33 6 47 13 47 24 96 45 120 52 12 3 22 11 22
16 0 5 7 9 16 9 14 0 48 15 94 41 8 5 22 12 30 15 8 3 22 10 30 15 8 5 21 11
28 14 6 3 18 7 25 10 6 3 26 14 42 25 17 11 43 25 58 31 17 7 26 17 23 25 -3
8 0 11 9 8 8 -4 36 7 62 23 27 16 56 32 66 36 9 3 17 11 17 16 0 5 11 12 25
15 14 4 25 11 25 16 0 6 7 10 15 10 9 0 18 7 21 15 4 8 10 15 15 15 12 0 73
42 77 53 2 4 10 7 18 7 8 0 17 7 20 15 4 8 11 15 18 15 6 0 26 13 44 30 18 16
36 30 40 30 4 0 15 8 24 18 25 26 46 42 56 42 4 0 19 13 32 30 14 16 28 29 33
30 4 0 15 8 25 17 10 10 47 43 82 73 80 68 268 256 335 334 28 32 58 67 68 77
9 11 17 22 17 25 0 3 13 17 29 32 15 15 37 41 47 57 10 17 24 34 31 38 7 4 13
12 13 17 0 5 14 24 30 42 17 18 30 38 30 44 0 7 7 14 15 18 8 3 15 12 15 20 0
7 7 16 15 20 8 3 15 12 15 21 0 8 4 15 10 15 5 0 12 11 16 24 3 14 12 27 20
30 8 3 14 12 14 21 0 8 4 15 10 15 5 0 12 11 16 25 3 14 10 25 15 25 5 0 13
10 18 23 5 12 21 39 35 60 14 21 26 44 26 51 0 8 7 16 15 20 8 3 15 14 15 24
0 11 7 25 15 32 8 7 15 18 15 25 0 7 7 18 15 25 8 7 15 20 15 30 0 10 7 23 15
30 8 7 15 20 15 30 0 10 7 23 15 30 8 7 15 20 15 30 0 10 7 23 15 30 8 7 15
23 15 36 0 13 4 24 10 24 5 0 13 12 16 27 4 16 13 37 20 48 8 11 14 30 14 42
0 13 4 23 10 23 5 0 13 12 16 27 4 15 13 38 20 52 8 14 14 35 14 46 0 11 7 29
15 39 8 11 15 29 15 40 0 12 7 30 15 40 8 11 15 31 15 45 0 14 7 35 15 45 8
11 15 32 15 47 0 15 4 30 9 34 6 3 13 27 17 53 4 25 13 61 20 79 8 18 14 45
14 62 0 16 7 42 15 57 8 16 15 47 15 70 0 22 5 45 11 51 6 6 14 42 16 80 3 37
10 77 16 88 5 10 14 67 18 125 5 58 13 128 18 155 13 66 12 724 0 795 -6 30
-14 103 -18 163 -5 59 -13 113 -18 120 -6 6 -13 42 -16 80 -2 37 -9 73 -15 80
-5 6 -12 39 -15 71 -3 32 -11 64 -16 69 -6 6 -11 24 -11 39 0 16 -7 45 -15 65
-8 19 -15 47 -15 62 0 14 -7 39 -15 55 -8 15 -15 38 -15 50 0 12 -7 31 -15 42
-8 10 -15 31 -15 45 0 14 -7 34 -15 45 -8 10 -15 28 -15 39 0 11 -6 29 -14 40
-7 11 -16 37 -20 58 -4 20 -11 37 -16 37 -6 0 -10 9 -10 21 0 11 -6 33 -13 47
-24 47 -45 96 -52 120 -3 12 -11 22 -16 22 -5 0 -9 11 -9 24 0 13 -7 29 -15
36 -8 7 -15 20 -15 30 0 10 -7 23 -15 30 -8 7 -15 20 -15 30 0 10 -7 23 -15
30 -8 7 -15 20 -15 30 0 10 -6 23 -14 29 -8 7 -17 23 -20 36 -4 14 -11 25 -16
25 -6 0 -10 9 -10 20 0 11 -6 23 -14 26 -8 3 -17 16 -20 30 -4 13 -11 24 -16
24 -6 0 -10 8 -10 19 0 10 -7 24 -15 31 -8 7 -15 18 -15 26 0 7 -6 17 -12 21
-15 9 -33 37 -48 71 -5 12 -14 22 -19 22 -5 0 -12 8 -15 18 -13 34 -37 72 -47
72 -5 0 -9 7 -9 15 0 9 -7 18 -15 21 -8 4 -15 11 -15 18 0 6 -13 26 -30 44
-16 18 -30 36 -30 40 0 4 -8 15 -17 24 -27 25 -43 46 -43 56 0 4 -13 19 -30
32 -16 14 -29 28 -30 33 0 4 -8 15 -17 25 -10 10 -36 40 -58 67 -76 94 -214
227 -226 219 -8 -5 -9 -3 -4 5 8 13 -24 46 -125 131 -30 25 -62 53 -72 63 -10
9 -20 17 -22 17 -2 0 -25 20 -52 45 -26 25 -53 45 -60 45 -6 0 -14 7 -18 15
-3 8 -10 15 -15 15 -5 0 -25 14 -43 30 -18 17 -38 30 -44 30 -7 0 -14 7 -18
15 -3 8 -12 15 -21 15 -8 0 -15 4 -15 9 0 10 -38 34 -72 47 -10 3 -18 10 -18
15 0 5 -10 14 -22 19 -34 15 -62 33 -71 48 -4 6 -17 12 -27 12 -11 0 -20 4
-20 9 0 5 -21 20 -47 33 -27 13 -54 29 -61 36 -7 6 -20 12 -28 12 -8 0 -14 4
-14 10 0 5 -11 12 -25 16 -13 3 -29 12 -36 20 -6 8 -19 14 -29 14 -10 0 -23 7
-30 15 -7 8 -20 15 -30 15 -10 0 -23 7 -30 15 -7 8 -20 15 -30 15 -10 0 -23 7
-30 15 -7 8 -23 15 -36 15 -13 0 -24 4 -24 10 0 5 -12 13 -27 16 -16 4 -37 13
-48 20 -11 8 -27 14 -36 14 -9 0 -22 7 -29 15 -7 8 -25 15 -41 15 -16 0 -29 4
-29 10 0 5 -18 13 -40 16 -22 4 -40 10 -40 15 0 5 -18 12 -40 15 -22 4 -45 13
-51 20 -6 8 -26 14 -43 14 -17 0 -40 7 -50 15 -11 8 -34 15 -52 15 -18 0 -34
5 -36 11 -2 6 -26 13 -53 16 -28 3 -59 12 -70 19 -11 8 -34 14 -51 14 -17 0
-45 7 -60 15 -16 8 -49 15 -74 15 -26 0 -51 5 -57 11 -6 6 -39 13 -74 16 -35
3 -83 11 -107 19 -23 8 -71 14 -105 14 -34 0 -94 7 -132 15 -94 20 -744 20
-850 0z m816 -636 c11 -5 59 -13 107 -16 48 -3 106 -11 130 -19 23 -8 62 -14
85 -14 24 0 48 -5 53 -10 6 -6 35 -13 65 -17 30 -3 63 -12 74 -19 11 -8 35
-14 55 -14 19 0 44 -7 54 -15 11 -8 30 -15 42 -15 12 0 35 -7 50 -15 16 -8 39
-15 52 -15 13 0 30 -7 38 -15 9 -8 26 -15 39 -15 13 0 38 -8 57 -17 18 -9 45
-22 60 -30 14 -7 35 -13 46 -13 11 0 25 -7 32 -15 7 -8 21 -15 32 -15 11 0 26
-7 34 -15 9 -8 24 -15 33 -15 10 0 24 -7 31 -15 7 -8 20 -15 30 -15 10 0 23
-7 30 -15 7 -8 20 -15 30 -15 10 0 23 -7 30 -15 7 -8 21 -15 31 -15 11 0 19
-4 19 -10 0 -5 11 -12 25 -16 13 -3 29 -12 36 -20 6 -8 20 -14 30 -14 11 0 19
-5 19 -10 0 -6 10 -15 23 -20 33 -15 61 -33 70 -47 4 -7 16 -13 25 -13 9 0 32
-14 51 -30 18 -17 39 -30 46 -30 7 0 15 -7 19 -15 3 -8 12 -15 20 -15 7 0 16
-7 20 -15 3 -8 12 -15 21 -15 8 0 15 -4 15 -9 0 -5 8 -12 18 -15 9 -3 34 -21
54 -40 20 -19 57 -49 82 -67 25 -18 46 -36 46 -41 0 -4 4 -8 9 -8 5 0 77 -68
161 -150 87 -87 156 -148 162 -144 7 5 8 2 3 -5 -4 -7 1 -20 11 -31 30 -29 67
-72 104 -120 19 -25 47 -58 62 -74 15 -16 30 -38 34 -48 3 -10 10 -18 15 -18
5 0 9 -7 9 -15 0 -9 7 -18 15 -21 8 -4 15 -13 15 -20 0 -8 7 -17 15 -20 8 -4
15 -10 15 -15 0 -10 39 -69 51 -79 4 -3 9 -15 13 -27 4 -13 11 -23 16 -23 4 0
10 -8 14 -17 3 -10 15 -31 26 -48 11 -16 24 -40 29 -52 5 -11 15 -24 20 -28 6
-3 11 -15 11 -26 0 -11 7 -22 15 -25 8 -4 15 -14 15 -24 0 -10 7 -23 15 -30 8
-7 15 -20 15 -30 0 -10 7 -23 15 -30 8 -7 15 -20 15 -30 0 -10 7 -23 15 -30 8
-7 15 -21 15 -31 0 -9 7 -24 15 -33 8 -8 15 -23 15 -34 0 -11 7 -25 15 -32 8
-7 15 -23 15 -36 0 -12 7 -29 15 -38 8 -8 15 -26 15 -39 0 -14 7 -30 15 -37 8
-7 15 -22 15 -34 0 -11 6 -33 14 -47 7 -14 16 -42 20 -62 4 -21 11 -37 16 -37
6 0 10 -15 10 -33 0 -18 7 -42 15 -53 8 -10 15 -35 15 -54 0 -19 7 -48 15 -64
8 -15 15 -41 15 -57 0 -17 7 -46 15 -66 8 -19 15 -53 15 -74 0 -21 6 -56 14
-76 8 -21 17 -78 20 -127 3 -49 10 -94 16 -100 13 -13 14 -760 0 -786 -5 -10
-13 -58 -16 -107 -3 -48 -12 -107 -20 -131 -8 -23 -14 -63 -14 -87 0 -24 -4
-46 -9 -50 -6 -3 -13 -27 -16 -53 -4 -26 -13 -61 -21 -79 -8 -17 -14 -46 -14
-65 0 -18 -7 -42 -15 -52 -8 -11 -15 -30 -15 -42 0 -12 -7 -35 -15 -50 -8 -16
-15 -38 -15 -49 0 -11 -7 -29 -15 -39 -8 -11 -15 -31 -15 -45 0 -14 -7 -35
-15 -45 -8 -11 -15 -30 -15 -43 0 -13 -4 -23 -9 -23 -5 0 -13 -14 -16 -32 -4
-17 -14 -38 -21 -46 -8 -7 -14 -21 -14 -30 0 -9 -7 -26 -15 -36 -8 -11 -15
-27 -15 -37 0 -9 -7 -22 -15 -29 -8 -7 -15 -20 -15 -30 0 -10 -7 -23 -15 -30
-8 -7 -15 -20 -15 -30 0 -10 -7 -23 -15 -30 -8 -7 -15 -21 -15 -31 0 -11 -4
-19 -9 -19 -5 0 -14 -12 -20 -27 -6 -16 -20 -41 -31 -58 -11 -16 -24 -39 -30
-50 -14 -28 -33 -57 -47 -73 -7 -7 -13 -20 -13 -28 0 -8 -5 -14 -10 -14 -6 0
-15 -10 -20 -23 -15 -33 -33 -61 -47 -70 -7 -4 -13 -15 -13 -22 0 -8 -5 -15
-10 -15 -6 0 -13 -8 -17 -17 -6 -18 -61 -94 -75 -104 -5 -3 -19 -19 -31 -37
-13 -17 -41 -53 -63 -78 -55 -66 -383 -394 -394 -394 -5 0 -13 -6 -17 -13 -4
-8 -32 -31 -61 -53 -31 -23 -50 -44 -47 -52 2 -7 0 -10 -5 -7 -9 6 -71 -32
-78 -47 -2 -5 -10 -8 -18 -8 -8 0 -17 -7 -20 -15 -4 -8 -13 -15 -20 -15 -8 0
-17 -7 -20 -15 -4 -8 -10 -15 -15 -15 -10 0 -69 -39 -79 -51 -3 -4 -15 -9 -27
-13 -13 -4 -23 -11 -23 -16 0 -4 -8 -10 -17 -14 -10 -3 -31 -15 -48 -26 -16
-11 -42 -25 -57 -31 -16 -6 -28 -15 -28 -19 0 -4 -11 -11 -25 -14 -14 -4 -25
-11 -25 -16 0 -6 -8 -10 -19 -10 -10 0 -24 -7 -31 -15 -7 -8 -20 -15 -30 -15
-10 0 -23 -7 -30 -15 -7 -8 -20 -15 -30 -15 -10 0 -23 -7 -30 -15 -7 -8 -20
-15 -29 -15 -9 0 -25 -6 -36 -14 -11 -7 -32 -16 -47 -20 -16 -3 -28 -11 -28
-16 0 -6 -11 -10 -24 -10 -14 0 -31 -7 -40 -15 -8 -8 -23 -15 -33 -15 -11 0
-28 -7 -39 -15 -10 -8 -31 -15 -46 -15 -15 0 -33 -7 -42 -15 -8 -8 -25 -15
-38 -15 -13 0 -36 -7 -52 -15 -15 -8 -38 -15 -50 -15 -11 0 -33 -6 -47 -14
-14 -7 -47 -16 -73 -20 -25 -4 -46 -11 -46 -15 0 -5 -28 -11 -62 -15 -34 -3
-67 -11 -72 -16 -6 -6 -27 -10 -48 -10 -20 0 -57 -6 -80 -14 -24 -8 -83 -17
-131 -20 -49 -3 -97 -11 -107 -16 -25 -13 -773 -13 -786 0 -5 5 -50 12 -99 16
-50 3 -107 12 -128 20 -20 8 -55 14 -76 14 -21 0 -55 7 -74 15 -20 8 -52 15
-71 15 -19 0 -37 4 -41 9 -3 6 -26 13 -52 17 -25 4 -58 13 -72 20 -14 8 -36
14 -47 14 -12 0 -35 7 -50 15 -16 8 -36 15 -45 15 -9 0 -30 7 -45 15 -16 8
-37 15 -47 15 -10 0 -25 7 -33 15 -9 8 -25 15 -37 15 -12 0 -31 7 -41 15 -11
8 -30 15 -43 15 -13 0 -23 4 -23 10 0 5 -12 13 -27 16 -16 4 -37 13 -48 20
-11 8 -27 14 -36 14 -9 0 -22 7 -29 15 -7 8 -20 15 -30 15 -10 0 -23 7 -30 15
-7 8 -20 15 -30 15 -10 0 -23 7 -30 15 -7 8 -21 15 -31 15 -11 0 -19 4 -19 9
0 5 -12 14 -27 20 -16 6 -41 20 -58 31 -16 11 -39 24 -50 30 -28 14 -57 33
-73 48 -7 6 -18 12 -23 12 -5 0 -15 5 -22 10 -48 41 -62 50 -72 50 -7 0 -15 7
-19 15 -3 8 -12 15 -20 15 -7 0 -16 7 -20 15 -3 8 -12 15 -21 15 -8 0 -15 4
-15 9 0 5 -8 12 -18 15 -9 3 -34 21 -54 40 -20 19 -57 49 -82 67 -25 18 -46
36 -46 41 0 4 -4 8 -10 8 -12 0 -380 367 -380 380 0 5 -6 13 -13 17 -7 4 -28
28 -47 53 -19 25 -47 58 -62 74 -15 16 -30 38 -34 48 -3 10 -10 18 -15 18 -5
0 -9 7 -9 15 0 9 -7 18 -15 21 -8 4 -15 13 -15 20 0 8 -7 17 -15 20 -8 4 -15
12 -15 19 0 6 -9 23 -20 36 -25 31 -32 41 -47 65 -6 10 -16 18 -22 17 -6 -2
-8 4 -4 12 3 9 -1 23 -9 33 -8 9 -18 24 -22 32 -3 8 -15 29 -26 45 -11 17 -25
42 -31 57 -6 16 -15 28 -20 28 -5 0 -9 8 -9 19 0 10 -7 24 -15 31 -8 7 -15 20
-15 30 0 10 -7 23 -15 30 -8 7 -15 20 -15 30 0 10 -7 23 -15 30 -8 7 -15 21
-15 31 0 9 -7 24 -15 33 -8 8 -15 23 -15 34 0 11 -7 25 -15 32 -8 7 -15 21
-15 32 0 11 -6 32 -13 46 -8 15 -21 42 -30 60 -9 19 -17 41 -17 50 0 9 -7 30
-15 46 -8 15 -15 36 -15 45 0 9 -7 29 -15 45 -8 15 -15 38 -15 50 0 12 -6 30
-14 41 -7 11 -16 42 -18 69 -3 27 -10 51 -15 55 -6 3 -13 30 -16 60 -4 30 -11
59 -17 65 -5 5 -10 29 -10 51 0 23 -6 64 -14 91 -8 27 -16 86 -20 132 -3 45
-10 91 -16 101 -14 27 -14 773 1 788 5 5 12 52 15 104 3 52 12 111 20 132 8
20 14 55 14 76 0 21 7 52 15 67 8 16 15 43 15 60 0 18 7 45 15 60 8 16 15 45
15 64 0 19 7 44 15 54 8 11 15 35 15 53 0 18 4 33 10 33 5 0 12 17 16 38 4 20
13 46 20 57 8 11 14 31 14 46 0 15 7 32 15 39 8 7 15 22 15 34 0 11 7 30 15
40 8 11 15 30 15 43 0 13 4 23 10 23 5 0 13 12 16 28 4 15 13 36 20 47 8 11
14 27 14 36 0 9 7 22 15 29 8 7 15 20 15 30 0 10 7 23 15 30 8 7 15 20 15 30
0 10 7 23 15 30 8 7 15 20 15 30 0 10 7 20 15 24 8 3 15 12 15 21 0 8 12 34
27 58 47 72 52 81 59 100 3 9 10 17 14 17 5 0 12 10 16 23 4 12 20 38 35 58
16 20 29 40 29 43 0 8 18 31 43 54 9 9 17 22 17 29 0 7 4 13 9 13 5 0 12 8 15
18 4 10 19 32 34 48 15 16 43 49 62 74 18 25 46 57 62 72 15 15 28 30 28 33 0
7 291 296 346 345 16 14 49 41 74 60 25 19 58 47 74 62 16 15 38 30 48 34 10
3 18 10 18 15 0 5 7 9 15 9 9 0 18 7 21 15 4 8 12 15 20 15 7 0 17 6 21 13 9
14 37 32 71 47 12 5 22 14 22 20 0 5 9 10 20 10 10 0 23 6 27 13 4 8 15 17 23
21 15 7 27 14 95 56 22 14 60 36 85 48 25 13 52 27 60 32 8 5 22 11 30 14 8 3
22 10 30 15 8 5 22 12 30 15 8 3 22 10 30 15 37 21 148 70 173 75 15 4 27 11
27 16 0 6 13 10 29 10 16 0 34 7 41 15 7 8 25 15 39 15 15 0 36 7 47 15 10 8
28 15 39 15 11 0 33 7 49 15 15 8 38 15 50 15 12 0 30 6 41 14 11 7 42 16 69
18 27 3 51 10 55 15 3 6 30 13 60 16 30 4 59 11 65 17 5 5 29 10 51 10 23 0
64 6 91 14 27 8 86 17 132 20 45 3 90 10 100 15 24 14 757 14 783 0z m-4006
-3068 c7 -12 -12 -24 -25 -16 -11 7 -4 25 10 25 5 0 11 -4 15 -9z"/>
</g>
</svg>
